<svg version="1.1" xmlns="http://www.w3.org/2000/svg" xmlns:xlink="http://www.w3.org/1999/xlink" x="0px" y="0px"
	 viewBox="0 0 490 490" style="enable-background:new 0 0 490 490;" xml:space="preserve">
<path d="M471.257,17.263L460.245,0L347.609,71.794L232.09,373.632c-13.43,1.01-25.605,6.578-34.968,15.176L26.245,321.589
  l-7.502,19.063l165.588,65.139c-3.901,7.815-6.109,16.617-6.109,25.928c0,32.136,26.14,58.281,58.271,58.281
  c32.131,0,58.275-26.146,58.275-58.281c0-26.336-17.574-48.639-41.607-55.828l111.16-290.455L471.257,17.263z M274.285,431.719
  c0,20.844-16.953,37.797-37.791,37.797c-20.834,0-37.787-16.953-37.787-37.797c0-20.833,16.953-37.787,37.787-37.787
  C257.332,393.932,274.285,410.886,274.285,431.719z"/>
<path d="M47.449,300.815l157.923,61.122c6.471,2.363,11.677-1.79,13.248-5.851l56.15-145.077c1.314-2.565,1.62-10.123-5.857-13.252
  l-157.924-61.122c-5.271-2.04-11.202,0.57-13.248,5.851l-56.15,145.076C38.87,295.481,44.913,299.835,47.449,300.815z
   M113.151,159.439l138.821,53.72l-48.759,125.973l-138.82-53.72L113.151,159.439z"/>
<path d="M118.091,121.452l157.925,61.122c6.524,2.387,11.677-1.79,13.247-5.851l26.66-68.883c1.084-2.367,1.761-10-5.856-13.253
  L152.143,33.466c-5.276-2.04-11.207,0.58-13.247,5.851l-26.66,68.882C109.472,116.063,115.411,120.545,118.091,121.452z
   M154.304,56.27l138.82,53.721l-19.269,49.778l-138.82-53.72L154.304,56.27z"/>
</svg>
