<svg version="1.1" xmlns="http://www.w3.org/2000/svg" xmlns:xlink="http://www.w3.org/1999/xlink" x="0px" y="0px"
	 viewBox="0 0 512 512" style="enable-background:new 0 0 512 512;" xml:space="preserve">
		<path d="M464.681,388.845c-2.616-8.902-11.95-13.999-20.856-11.379l-122.532,36.018c4.97,9.786,8.271,20.503,9.45,32.243
			l122.558-36.026C462.203,407.084,467.297,397.747,464.681,388.845z"/>
		<path d="M121.585,12.065c-2.618-8.902-11.953-13.994-20.856-11.38l-54.771,16.1c-8.902,2.617-13.996,11.955-11.38,20.856
			c2.617,8.9,11.951,13.991,20.856,11.38l38.653-11.363l99.7,339.172c9.409-5.629,20.029-9.663,31.608-11.61L121.585,12.065z"/>
		<path d="M249.984,451.956c-1.574-5.352-7.152-8.31-12.4-6.765c-5.283,1.552-8.318,7.114-6.765,12.397
			c1.577,5.367,7.167,8.309,12.396,6.767C248.502,462.801,251.538,457.239,249.984,451.956z"/>
		<path d="M295.291,438.638c-8.652-29.432-40.06-47.86-71.024-38.755c-30.265,8.896-47.65,40.758-38.753,71.023
			c8.652,29.432,40.058,47.859,71.022,38.753C286.799,500.764,304.185,468.903,295.291,438.638z M247.06,477.426
			c-12.868,3.777-25.758-3.906-29.311-15.994c-3.672-12.491,3.502-25.641,15.992-29.312c12.848-3.778,25.756,3.893,29.313,15.993
			C266.727,460.604,259.551,473.754,247.06,477.426z"/>
		<path d="M476.976,300.592l-47.231-160.677c-4.318-14.687-19.723-23.093-34.41-18.776L234.658,168.37
			c-14.687,4.317-23.093,19.723-18.776,34.41l47.232,160.677c4.319,14.704,19.768,23.082,34.41,18.775l160.677-47.232
			C472.887,330.685,481.294,315.28,476.976,300.592z"/>
</svg>
