<svg viewBox="2 0 1000 264" version="1.1" xmlns="http://www.w3.org/2000/svg" xmlns:xlink="http://www.w3.org/1999/xlink">
  <path d="M92.8961749,79.1336068 L184.62139,124.885819 L184.62139,217.769048 L92.8961749,263.52126 L1.17096019,217.769048 L1.17096019,0 L12.8805621,0 L12.8805621,119.045111 L92.8961749,79.1336068 Z M12.8805621,210.549536 L92.8961749,250.46104 L172.911788,210.549536 L172.911788,132.105331 L92.8961749,92.1938268 L12.8805621,132.105331 L12.8805621,210.549536 Z" fill-rule="nonzero"></path>
  <path d="M332.474629,262.664623 L240.749415,216.912411 L240.749415,124.029182 L332.474629,78.2769696 L424.199844,124.029182 L424.199844,256.134513 L412.490242,256.134513 L412.490242,222.753119 L332.474629,262.664623 Z M412.490242,131.248694 L332.474629,91.3371897 L252.459016,131.248694 L252.459016,209.692899 L332.474629,249.604403 L412.490242,209.692899 L412.490242,131.248694 Z" fill-rule="nonzero"></path>
  <polygon fill-rule="nonzero" points="574.629196 249.604403 491.377129 208.078567 486.140436 218.526743 574.629196 262.664623 673.591343 213.302655 501.850515 127.638938 574.629196 91.3371897 657.881263 132.863026 663.117956 122.41485 574.629196 78.2769696 475.667049 127.638938 647.407877 213.302655"></polygon>
  <path d="M814.20765,262.664623 L722.482436,216.912411 L722.482436,124.029182 L814.20765,78.2769696 L905.932865,124.029182 L905.932865,256.134513 L894.223263,256.134513 L894.223263,222.753119 L814.20765,262.664623 Z M894.223263,131.248694 L814.20765,91.3371897 L734.192037,131.248694 L734.192037,209.692899 L814.20765,249.604403 L894.223263,209.692899 L894.223263,131.248694 Z" fill-rule="nonzero"></path>
  <polygon fill-rule="nonzero" points="999.531616 256.99115 999.531616 0 987.822014 0 987.822014 256.99115"></polygon>
</svg>
