<?xml version="1.0" encoding="utf-8"?>
<!-- Generator: Adobe Illustrator 19.2.1, SVG Export Plug-In . SVG Version: 6.00 Build 0)  -->
<svg version="1.1" id="Capa_1" xmlns="http://www.w3.org/2000/svg" xmlns:xlink="http://www.w3.org/1999/xlink" x="0px" y="0px"
	 viewBox="0 0 60 60" style="enable-background:new 0 0 60 60;" xml:space="preserve">
<path id="profileSVG" d="M48,42.9l-9.6-4.8c-0.9-0.5-1.5-1.4-1.5-2.4v-3.4c0.2-0.3,0.5-0.6,0.7-1c1.2-1.8,2.2-3.7,3-5.8
	c1.4-0.6,2.3-2,2.3-3.6v-4c0-1-0.4-1.9-1-2.6v-5.3c0.1-0.6,0.3-3.8-2.1-6.5C37.9,1.2,34.5,0,30,0s-7.9,1.2-9.9,3.5
	c-2.4,2.7-2.1,6-2.1,6.5v5.3c-0.6,0.7-1,1.7-1,2.6v4c0,1.2,0.6,2.4,1.5,3.1c0.9,3.6,2.8,6.4,3.5,7.2v3.3c0,1-0.5,1.9-1.4,2.3
	l-8.9,4.9C8.8,44.4,7,47.5,7,50.8V54c0,4.7,15,6,23,6s23-1.3,23-6v-3C53,47.5,51.1,44.4,48,42.9z M51,54c0,1.4-7.4,4-21,4
	S9,55.4,9,54v-3.2c0-2.6,1.4-4.9,3.7-6.2l8.9-4.9c1.5-0.8,2.4-2.4,2.4-4.1v-4l-0.2-0.3c0,0-2.5-3-3.4-7.1l-0.1-0.4l-0.3-0.2
	c-0.6-0.4-0.9-1-0.9-1.7v-4c0-0.6,0.2-1.1,0.7-1.5l0.3-0.3V10l0-0.1c0,0-0.3-2.8,1.6-5C23.3,3,26.1,2,30,2c3.9,0,6.7,1,8.4,2.8
	c1.9,2.2,1.6,5,1.6,5l0,6.4l0.3,0.3c0.4,0.4,0.7,0.9,0.7,1.5v4c0,0.9-0.6,1.6-1.4,1.9l-0.5,0.2l-0.2,0.5c-0.7,2.1-1.6,4-2.8,5.7
	c-0.3,0.4-0.6,0.8-0.8,1.1L35,31.6v4.1c0,1.8,1,3.4,2.6,4.2l9.6,4.8c2.4,1.2,3.9,3.6,3.9,6.3V54z"/>
</svg>
