<?xml version="1.0" standalone="no"?>
<!DOCTYPE svg PUBLIC "-//W3C//DTD SVG 20010904//EN"
 "http://www.w3.org/TR/2001/REC-SVG-20010904/DTD/svg10.dtd">
<svg version="1.0" xmlns="http://www.w3.org/2000/svg"
 width="1000.000000pt" height="1000.000000pt" viewBox="0 0 1000.000000 1000.000000"
 preserveAspectRatio="xMidYMid meet">
<metadata>
Created by potrace 1.11, written by Peter Selinger 2001-2013
</metadata>
<g transform="translate(0.000000,1000.000000) scale(0.100000,-0.100000)"
fill="#000000" stroke="none">
<path d="M4742 9489 c-140 -7 -162 -10 -354 -34 -632 -82 -1332 -346 -1873
-708 -275 -184 -442 -322 -695 -576 -369 -370 -609 -701 -835 -1152 -636
-1267 -641 -2737 -15 -4009 165 -333 318 -572 560 -870 107 -132 442 -471 575
-581 527 -438 1124 -745 1778 -913 220 -57 388 -88 667 -121 271 -32 688 -26
1010 15 680 86 1330 324 1899 697 282 184 459 330 721 592 368 368 603 692
829 1141 462 921 598 1921 396 2923 -169 843 -579 1620 -1175 2231 -367 377
-743 655 -1190 881 -584 294 -1177 452 -1825 485 -219 11 -275 11 -473 -1z
m-2472 -3454 c311 -99 536 -339 611 -652 31 -127 29 -295 -4 -424 -103 -395
-451 -669 -852 -671 -172 -1 -305 32 -443 108 -207 113 -356 296 -427 524 -36
116 -45 308 -21 430 72 354 339 626 691 704 51 11 110 15 215 12 125 -3 157
-7 230 -31z m2975 0 c297 -87 520 -309 611 -610 25 -82 28 -105 28 -245 0
-140 -3 -164 -28 -245 -34 -111 -99 -237 -169 -323 -127 -159 -341 -280 -549
-313 -87 -14 -281 -6 -353 14 -328 92 -553 315 -647 642 -19 68 -23 102 -22
230 1 133 4 160 27 238 91 299 307 520 594 607 111 33 159 39 293 35 98 -3
144 -9 215 -30z m2988 1 c303 -90 520 -307 614 -613 24 -79 27 -103 27 -243 0
-140 -3 -164 -28 -245 -88 -291 -297 -508 -582 -604 -201 -67 -482 -48 -667
46 -227 115 -390 307 -463 548 -25 82 -28 105 -28 250 -1 184 15 259 84 400
122 247 342 414 631 480 101 23 301 14 412 -19z"/>
</g>
</svg>
